<svg width="181" height="22" viewBox="0 0 181 22" fill="none" xmlns="http://www.w3.org/2000/svg">
<path d="M-0.0960083 21V1.12H4.49599V16.968H14.128V21H-0.0960083Z" fill="white"/>
<path d="M24.6354 21.168C23.1421 21.168 21.7888 20.888 20.5754 20.328C19.3808 19.7493 18.3448 18.984 17.4674 18.032C16.6088 17.0613 15.9461 15.9787 15.4794 14.784C15.0128 13.5707 14.7794 12.32 14.7794 11.032C14.7794 9.70666 15.0221 8.44666 15.5074 7.252C16.0114 6.05733 16.7021 4.99333 17.5794 4.06C18.4754 3.108 19.5301 2.36133 20.7434 1.81999C21.9568 1.27866 23.2821 1.00799 24.7194 1.00799C26.1941 1.00799 27.5288 1.29733 28.7234 1.876C29.9368 2.436 30.9728 3.20133 31.8314 4.172C32.7088 5.14266 33.3808 6.23466 33.8474 7.448C34.3141 8.64266 34.5474 9.86533 34.5474 11.116C34.5474 12.4413 34.3048 13.7013 33.8194 14.896C33.3341 16.0907 32.6434 17.164 31.7474 18.116C30.8514 19.0493 29.7968 19.796 28.5834 20.356C27.3888 20.8973 26.0728 21.168 24.6354 21.168ZM19.4554 11.088C19.4554 11.8533 19.5674 12.6 19.7914 13.328C20.0154 14.0373 20.3421 14.672 20.7714 15.232C21.2194 15.792 21.7701 16.24 22.4234 16.576C23.0768 16.912 23.8234 17.08 24.6634 17.08C25.5408 17.08 26.3061 16.912 26.9594 16.576C27.6128 16.2213 28.1541 15.7547 28.5834 15.176C29.0128 14.5973 29.3301 13.9533 29.5354 13.244C29.7594 12.516 29.8714 11.7787 29.8714 11.032C29.8714 10.2667 29.7594 9.52933 29.5354 8.81999C29.3114 8.11066 28.9754 7.476 28.5274 6.916C28.0794 6.33733 27.5288 5.88933 26.8754 5.572C26.2221 5.25466 25.4848 5.096 24.6634 5.096C23.7861 5.096 23.0208 5.264 22.3674 5.6C21.7328 5.936 21.1914 6.39333 20.7434 6.97199C20.3141 7.53199 19.9874 8.176 19.7634 8.904C19.5581 9.61333 19.4554 10.3413 19.4554 11.088Z" fill="white"/>
<path d="M37.2009 21V1.12H46.1609C47.0942 1.12 47.9529 1.316 48.7369 1.708C49.5395 2.08133 50.2302 2.59466 50.8089 3.248C51.3875 3.88266 51.8355 4.60133 52.1529 5.404C52.4889 6.20666 52.6569 7.01866 52.6569 7.84C52.6569 8.66133 52.5262 9.44533 52.2649 10.192C52.0035 10.92 51.6302 11.5827 51.1449 12.18C50.6595 12.7587 50.0809 13.2347 49.4089 13.608L53.7769 21H48.7089L44.9009 14.588H41.7929V21H37.2009ZM41.7929 10.584H45.9929C46.3662 10.584 46.6929 10.472 46.9729 10.248C47.2715 10.0053 47.5142 9.67866 47.7009 9.268C47.8875 8.85733 47.9809 8.38133 47.9809 7.84C47.9809 7.29866 47.8689 6.832 47.6449 6.43999C47.4395 6.02933 47.1782 5.71199 46.8609 5.488C46.5435 5.26399 46.2075 5.15199 45.8529 5.15199H41.7929V10.584Z" fill="white"/>
<path d="M69.9307 16.968V21H55.9587V1.12H69.6787V5.15199H60.5507V9.016H68.3907V12.74H60.5507V16.968H69.9307Z" fill="white"/>
<path d="M88.4004 21V9.156L84.1164 17.78H81.5964L77.3124 9.156V21H72.7204V1.12H77.7044L82.8564 11.508L88.0364 1.12H92.9924V21H88.4004Z" fill="white"/>
<path d="M96.8102 21V1.12H101.402V21H96.8102Z" fill="white"/>
<path d="M105.205 21V1.12H113.689C114.641 1.12 115.509 1.316 116.293 1.708C117.095 2.08133 117.786 2.59466 118.365 3.248C118.943 3.88266 119.391 4.60133 119.709 5.404C120.026 6.20666 120.185 7.028 120.185 7.868C120.185 9.00666 119.914 10.0893 119.373 11.116C118.85 12.1427 118.113 12.9827 117.161 13.636C116.227 14.2707 115.117 14.588 113.829 14.588H109.797V21H105.205ZM109.797 10.584H113.549C113.903 10.584 114.23 10.4813 114.529 10.276C114.827 10.0707 115.07 9.76266 115.257 9.352C115.443 8.94133 115.537 8.43733 115.537 7.84C115.537 7.224 115.425 6.72 115.201 6.328C114.995 5.91733 114.725 5.61866 114.389 5.43199C114.071 5.24533 113.735 5.15199 113.381 5.15199H109.797V10.584Z" fill="white"/>
<path d="M134.578 6.944C134.522 6.85066 134.326 6.71066 133.99 6.524C133.654 6.31866 133.234 6.104 132.73 5.88C132.226 5.65599 131.675 5.46 131.078 5.292C130.481 5.12399 129.883 5.04 129.286 5.04C128.502 5.04 127.895 5.18 127.466 5.46C127.037 5.72133 126.822 6.132 126.822 6.692C126.822 7.14 126.981 7.49466 127.298 7.756C127.634 8.01733 128.11 8.25066 128.726 8.456C129.342 8.64266 130.098 8.86666 130.994 9.128C132.263 9.464 133.365 9.87466 134.298 10.36C135.231 10.8267 135.941 11.4333 136.426 12.18C136.93 12.9267 137.182 13.916 137.182 15.148C137.182 16.268 136.977 17.22 136.566 18.004C136.155 18.7693 135.595 19.3947 134.886 19.88C134.195 20.3467 133.402 20.692 132.506 20.916C131.61 21.1213 130.686 21.224 129.734 21.224C128.763 21.224 127.765 21.1307 126.738 20.944C125.73 20.7387 124.759 20.4587 123.826 20.104C122.893 19.7307 122.034 19.2827 121.25 18.76L123.266 14.756C123.341 14.8493 123.583 15.0267 123.994 15.288C124.405 15.5307 124.909 15.792 125.506 16.072C126.122 16.3333 126.803 16.5667 127.55 16.772C128.297 16.9773 129.053 17.08 129.818 17.08C130.639 17.08 131.246 16.9493 131.638 16.688C132.049 16.4267 132.254 16.0627 132.254 15.596C132.254 15.092 132.039 14.7 131.61 14.42C131.199 14.14 130.63 13.888 129.902 13.664C129.193 13.44 128.371 13.188 127.438 12.908C126.225 12.5347 125.217 12.1147 124.414 11.648C123.63 11.1813 123.042 10.612 122.65 9.94C122.277 9.268 122.09 8.428 122.09 7.42C122.09 6.02 122.417 4.844 123.07 3.892C123.742 2.92133 124.638 2.19333 125.758 1.708C126.878 1.204 128.101 0.951996 129.426 0.951996C130.359 0.951996 131.255 1.064 132.114 1.28799C132.991 1.51199 133.803 1.792 134.55 2.128C135.315 2.464 135.997 2.8 136.594 3.136L134.578 6.944Z" fill="white"/>
<path d="M148.417 21.168C146.83 21.168 145.477 20.9067 144.357 20.384C143.237 19.8427 142.322 19.1147 141.613 18.2C140.922 17.2667 140.409 16.212 140.073 15.036C139.755 13.8413 139.597 12.5907 139.597 11.284V1.12H144.189V11.284C144.189 12.0307 144.263 12.7587 144.413 13.468C144.562 14.1587 144.805 14.7747 145.141 15.316C145.477 15.8573 145.906 16.2867 146.429 16.604C146.97 16.9213 147.633 17.08 148.417 17.08C149.219 17.08 149.891 16.9213 150.433 16.604C150.974 16.268 151.403 15.8293 151.721 15.288C152.038 14.728 152.271 14.1027 152.421 13.412C152.57 12.7213 152.645 12.012 152.645 11.284V1.12H157.237V11.284C157.237 12.6653 157.059 13.9533 156.705 15.148C156.369 16.3427 155.846 17.3973 155.137 18.312C154.427 19.208 153.513 19.908 152.393 20.412C151.291 20.916 149.966 21.168 148.417 21.168Z" fill="white"/>
<path d="M176.475 21V9.156L172.191 17.78H169.671L165.387 9.156V21H160.795V1.12H165.779L170.931 11.508L176.111 1.12H181.067V21H176.475Z" fill="white"/>
</svg>
